<?xml version="1.0" standalone="no"?><!DOCTYPE svg PUBLIC "-//W3C//DTD SVG 1.1//EN" "http://www.w3.org/Graphics/SVG/1.1/DTD/svg11.dtd"><svg t="1594716057112" class="icon" viewBox="0 0 1024 1024" version="1.1" xmlns="http://www.w3.org/2000/svg" p-id="1551" xmlns:xlink="http://www.w3.org/1999/xlink" width="128" height="128"><defs><style type="text/css"></style></defs><path d="M948.224 534.528V190.464c0-49.152-40.96-90.112-92.16-90.112H167.936c-51.2 0-92.16 40.96-92.16 90.112V821.248c0 57.344 47.104 104.448 104.448 104.448h663.552c57.344 0 104.448-47.104 104.448-104.448v-286.72z m-40.96 145.408H647.168c-34.816 0-61.44-28.672-61.44-61.44s28.672-61.44 61.44-61.44h260.096v122.88zM167.936 141.312h688.128c28.672 0 51.2 22.528 51.2 49.152v30.72c-18.432-14.336-38.912-22.528-63.488-22.528H180.224c-24.576 0-45.056 8.192-63.488 22.528V190.464c0-28.672 22.528-49.152 51.2-49.152z m675.84 741.376H180.224c-34.816 0-63.488-28.672-63.488-63.488V303.104c0-34.816 28.672-63.488 63.488-63.488h663.552c34.816 0 63.488 28.672 63.488 63.488v210.944H647.168c-57.344 0-102.4 47.104-102.4 102.4s47.104 102.4 102.4 102.4h260.096V819.2c0 34.816-28.672 63.488-63.488 63.488z" p-id="1552"></path><path d="M659.456 616.448m-28.672 0a28.672 28.672 0 1 0 57.344 0 28.672 28.672 0 1 0-57.344 0Z" p-id="1553"></path></svg>